<?xml version="1.0" encoding="UTF-8"?>
<svg id="Layer_1" data-name="Layer 1" xmlns="http://www.w3.org/2000/svg" viewBox="0 0 1080 1080">
  <defs>
    <style>
      .cls-1 {
        fill: #fff;
      }

      .cls-2 {
        fill: #f7941d;
      }
    </style>
  </defs>
  <g>
    <g>
      <path class="cls-2" d="M443.73,251.45c-.35,0-.64-.29-.64-.64v-3.15c0-.35.29-.64.64-.64s.64.29.64.64v3.15c0,.35-.29.64-.64.64Z"/>
      <path class="cls-2" d="M458.43,257.54c-.16,0-.33-.06-.45-.19-.25-.25-.25-.65,0-.9l2.23-2.23c.25-.25.65-.25.9,0,.25.25.25.65,0,.9l-2.23,2.23c-.12.12-.29.19-.45.19Z"/>
      <path class="cls-2" d="M426.8,289.18c-.16,0-.33-.06-.45-.19-.25-.25-.25-.65,0-.9l2.23-2.23c.25-.25.65-.25.9,0,.25.25.25.65,0,.9l-2.23,2.23c-.12.12-.29.19-.45.19Z"/>
      <path class="cls-2" d="M467.68,272.24h-3.15c-.35,0-.64-.29-.64-.64s.29-.64.64-.64h3.15c.35,0,.64.29.64.64s-.29.64-.64.64Z"/>
      <path class="cls-2" d="M422.93,272.24h-3.15c-.35,0-.64-.29-.64-.64s.29-.64.64-.64h3.15c.35,0,.64.29.64.64s-.29.64-.64.64Z"/>
      <path class="cls-2" d="M460.66,289.18c-.16,0-.33-.06-.45-.19l-2.23-2.23c-.25-.25-.25-.65,0-.9.25-.25.65-.25.9,0l2.23,2.23c.25.25.25.65,0,.9-.12.12-.29.19-.45.19Z"/>
      <path class="cls-2" d="M429.03,257.54c-.16,0-.33-.06-.45-.19l-2.23-2.23c-.25-.25-.25-.65,0-.9.25-.25.65-.25.9,0l2.23,2.23c.25.25.25.65,0,.9-.12.12-.29.19-.45.19Z"/>
      <path class="cls-2" d="M451.76,253.06c-.08,0-.17-.02-.25-.05-.33-.14-.48-.51-.34-.83l1.22-2.91c.14-.33.51-.48.83-.34.33.14.48.51.34.83l-1.22,2.91c-.1.24-.34.39-.59.39Z"/>
      <path class="cls-2" d="M462.97,264.36c-.25,0-.49-.15-.59-.4-.13-.33.02-.7.35-.83l2.92-1.19c.33-.13.7.02.83.35.13.33-.02.7-.35.83l-2.92,1.19c-.08.03-.16.05-.24.05Z"/>
      <path class="cls-2" d="M421.57,281.32c-.25,0-.49-.15-.59-.4-.13-.33.02-.7.35-.83l2.92-1.19c.33-.13.7.02.83.35.13.33-.02.7-.35.83l-2.92,1.19c-.08.03-.16.05-.24.05Z"/>
      <path class="cls-2" d="M465.82,281.49c-.08,0-.17-.02-.25-.05l-2.91-1.22c-.33-.14-.48-.51-.34-.83.14-.33.51-.48.83-.34l2.91,1.22c.33.14.48.51.34.83-.1.24-.34.39-.59.39Z"/>
      <path class="cls-2" d="M424.55,264.21c-.08,0-.17-.02-.25-.05l-2.91-1.22c-.33-.14-.48-.51-.34-.83.14-.33.51-.48.83-.34l2.91,1.22c.33.14.48.51.34.83-.1.24-.34.39-.59.39Z"/>
      <path class="cls-2" d="M435.85,253c-.25,0-.49-.15-.59-.4l-1.19-2.92c-.13-.33.02-.7.35-.83.33-.13.7.02.83.35l1.19,2.92c.13.33-.02.7-.35.83-.08.03-.16.05-.24.05Z"/>
    </g>
    <g>
      <path class="cls-2" d="M449.32,301.96h-10.78c-.61,0-1.1-.49-1.1-1.1h0c0-.61.49-1.1,1.1-1.1h10.78c.61,0,1.1.49,1.1,1.1h0c0,.61-.49,1.1-1.1,1.1Z"/>
      <path class="cls-2" d="M449.32,305.42h-10.78c-.61,0-1.1-.49-1.1-1.1h0c0-.61.49-1.1,1.1-1.1h10.78c.61,0,1.1.49,1.1,1.1h0c0,.61-.49,1.1-1.1,1.1Z"/>
      <path class="cls-2" d="M441.32,306.72c-.27,0-.47.24-.42.5.27,1.42,1.51,2.49,3,2.49s2.74-1.07,3-2.49c.05-.26-.15-.5-.42-.5h-5.17Z"/>
      <path class="cls-2" d="M448.18,298.37h-8.65c-1.5,0-2.76-1.17-2.87-2.67-.37-4.88-2.36-7.97-4.47-11.24-2.3-3.57-4.68-7.26-4.68-13.23,0-8.06,5.76-14.84,13.71-16.13,1.86-.3,3.81-.28,5.66.07,7.72,1.44,13.32,8.2,13.32,16.06,0,5.97-2.38,9.66-4.68,13.23-2.11,3.27-4.1,6.36-4.47,11.24-.11,1.5-1.37,2.67-2.87,2.67Z"/>
      <path class="cls-1" d="M435.93,281.47c-.33,0-.65-.15-.86-.44-5.9-8.11-1.55-15.72-1.36-16.04.3-.51.95-.68,1.46-.38.51.3.67.95.38,1.45-.16.28-3.81,6.76,1.25,13.71.35.47.24,1.14-.23,1.49-.19.14-.41.2-.63.2Z"/>
    </g>
  </g>
  <g>
    <path class="cls-1" d="M526.73,305.28h.02c-.01-.35-.01-.69-.02-1.04v-.35h0c-.09-9.28,2.49-17.22,7.19-21.92,3.49-3.49,7.97-5.08,13.74-4.86,5.49.21,9.76,2.04,13.06,5.61,4.37,4.72,6.76,12.39,6.66,21.17h-.04v477.02h30v-475.06c.56-17.27-4.6-32.7-14.59-43.5-8.73-9.45-20.47-14.71-33.94-15.22-14.18-.54-26.65,4.17-36.1,13.63-10.49,10.49-16.11,25.77-15.97,43.21v476.95h30v-475.64Z"/>
    <path class="cls-1" d="M428.73,780.92h30v-445.64c.03-.42.06-.83.06-1.26,0-8.32-6.74-15.06-15.06-15.06s-15.06,6.74-15.06,15.06c0,.43.03.85.06,1.27v445.63Z"/>
    <polygon class="cls-1" points="388.97 247.02 358.97 247.02 358.97 832.98 359 832.98 359 847.98 701.31 847.98 701.31 817.98 388.97 817.98 388.97 247.02"/>
    <path class="cls-1" d="M705.96,723.38c.38,9.35-2.04,17.56-6.63,22.53-3.3,3.57-7.57,5.4-13.06,5.61-5.77.23-10.25-1.37-13.74-4.86-4.93-4.94-7.55-13.43-7.17-23.31h-.04v-166.6h35.97v-30h-35.97v-221.44h.04c-.38-9.88,2.23-18.37,7.17-23.31,3.49-3.49,7.97-5.08,13.74-4.86,5.49.21,9.76,2.04,13.06,5.61,4.59,4.96,7.01,13.18,6.63,22.53l29.98,1.21c.71-17.51-4.47-33.17-14.58-44.1-8.73-9.45-20.47-14.71-33.94-15.22-14.16-.55-26.64,4.17-36.1,13.63-9.21,9.21-14.66,22.12-15.76,36.93l-.22,5.27s0,.05,0,.08v422.51s0,.05,0,.08v2.18h.06c.53,16.11,6.08,30.18,15.93,40.02,8.97,8.97,20.66,13.67,33.93,13.67.72,0,1.44-.01,2.17-.04,13.47-.51,25.21-5.78,33.94-15.23,10.11-10.93,15.28-26.59,14.58-44.1l-29.98,1.21Z"/>
  </g>
  <path class="cls-2" d="M810.48,943.21H269.52V136.79h540.95v806.43ZM279.52,933.21h520.95V146.79H279.52v786.43Z"/>
</svg>